<svg width="22" height="25" viewBox="0 0 22 25" fill="none" xmlns="http://www.w3.org/2000/svg">
<g clip-path="url(#clip0)">
<path d="M11 12.8159C14.4719 12.8159 17.2857 10.13 17.2857 6.81592C17.2857 3.50186 14.4719 0.815918 11 0.815918C7.52812 0.815918 4.71429 3.50186 4.71429 6.81592C4.71429 10.13 7.52812 12.8159 11 12.8159ZM15.4 14.3159H14.5799C13.4897 14.794 12.2768 15.0659 11 15.0659C9.72321 15.0659 8.51518 14.794 7.42009 14.3159H6.6C2.95625 14.3159 0 17.1378 0 20.6159V22.5659C0 23.8081 1.0558 24.8159 2.35714 24.8159H19.6429C20.9442 24.8159 22 23.8081 22 22.5659V20.6159C22 17.1378 19.0437 14.3159 15.4 14.3159Z" fill="black"/>
</g>
<defs>
<clipPath id="clip0">
<rect y="0.815918" width="22" height="24" fill="white"/>
</clipPath>
</defs>
</svg>
