<svg width="22" height="25" viewBox="0 0 22 25" fill="none" xmlns="http://www.w3.org/2000/svg">
<path d="M21.5832 9.75967C21.7508 9.61436 22 9.75029 22 9.97998V19.5659C22 20.8081 21.0762 21.8159 19.9375 21.8159H2.0625C0.923828 21.8159 0 20.8081 0 19.5659V9.98467C0 9.75029 0.244922 9.61904 0.416797 9.76436C1.3793 10.58 2.65547 11.6159 7.03828 15.0894C7.94492 15.8112 9.47461 17.33 11 17.3206C12.534 17.3347 14.0937 15.7831 14.966 15.0894C19.3488 11.6159 20.6207 10.5753 21.5832 9.75967ZM11 15.8159C11.9969 15.8347 13.432 14.4472 14.1539 13.8753C19.8559 9.36123 20.2898 8.96748 21.6047 7.84248C21.8539 7.63154 22 7.30342 22 6.95654V6.06592C22 4.82373 21.0762 3.81592 19.9375 3.81592H2.0625C0.923828 3.81592 0 4.82373 0 6.06592V6.95654C0 7.30342 0.146094 7.62686 0.395312 7.84248C1.71016 8.96279 2.14414 9.36123 7.84609 13.8753C8.56797 14.4472 10.0031 15.8347 11 15.8159Z" fill="black"/>
</svg>
