<svg width="239" height="62" viewBox="0 0 239 62" fill="none" xmlns="http://www.w3.org/2000/svg">
<path d="M74.7984 61.7854L74.6219 0H57.4985L37.9037 32.9228L17.7793 0H0.655945V61.7854H19.6329V34.5998L33.0492 56.2247H42.2287L55.645 33.6289L55.8215 61.7854H74.7984Z" fill="black"/>
<path d="M105.347 46.0743V37.9539H131.473V22.9489H105.347V15.7112H135.092V0H84.8696V61.7854H136.24V46.0743H105.347Z" fill="black"/>
<path d="M187.267 22.974H172.704V8.85166H156.816V22.974H142.252V37.9791H149.534H156.816V52.1015H172.704V37.9791H187.267V22.974Z" fill="black"/>
<path d="M238.344 22.9491H223.78V8.82668H207.893V22.9491H193.329V37.9541H207.893V52.0765H223.78V37.9541H238.344V22.9491Z" fill="black"/>
</svg>
